<svg width="12" height="13" viewBox="0 0 12 13" fill="none" xmlns="http://www.w3.org/2000/svg">
<path fill-rule="evenodd" clip-rule="evenodd" d="M0.3125 6.5C0.3125 3.35994 2.85994 0.8125 6 0.8125C9.14006 0.8125 11.6875 3.35994 11.6875 6.5C11.6875 9.64006 9.14006 12.1875 6 12.1875C2.85994 12.1875 0.3125 9.64006 0.3125 6.5ZM6 1.6875C3.34319 1.6875 1.1875 3.84319 1.1875 6.5C1.1875 9.15681 3.34319 11.3125 6 11.3125C8.65681 11.3125 10.8125 9.15681 10.8125 6.5C10.8125 3.84319 8.65681 1.6875 6 1.6875ZM5.5625 5.19887L4.12065 6.62954C3.94914 6.79973 3.67213 6.79866 3.50194 6.62714C3.33175 6.45562 3.33283 6.17861 3.50435 6.00842L5.69185 3.83788C5.86242 3.66862 6.13758 3.66862 6.30815 3.83788L8.49565 6.00842C8.66717 6.17861 8.66825 6.45562 8.49806 6.62714C8.32787 6.79866 8.05086 6.79973 7.87935 6.62954L6.4375 5.19887V8.85156C6.4375 9.09319 6.24162 9.28906 6 9.28906C5.75838 9.28906 5.5625 9.09319 5.5625 8.85156V5.19887Z" fill="#00BC1E"/>
</svg>
