<svg width="32" height="32" viewBox="0 0 32 32" fill="none" xmlns="http://www.w3.org/2000/svg">
<g clip-path="url(#clip0_6385_7858)">
<rect width="32" height="32" fill="#140D04"/>
<g opacity="0.8">
<path d="M22.5923 10.9562C22.5923 10.2704 23.1483 9.7144 23.8342 9.7144H26.7852C27.4711 9.7144 28.0271 10.2704 28.0271 10.9562V13.9011C28.0271 14.587 27.4711 15.1429 26.7852 15.1429H23.8342C23.1483 15.1429 22.5923 14.587 22.5923 13.9011V10.9562Z" fill="white"/>
<path d="M16.8717 5.24184C16.8717 4.55599 17.4277 4 18.1135 4H21.0646C21.7504 4 22.3064 4.55599 22.3064 5.24184V8.1867C22.3064 8.87255 21.7504 9.42854 21.0646 9.42854H18.1135C17.4277 9.42854 16.8717 8.87255 16.8717 8.1867V5.24184Z" fill="white"/>
<path d="M23.4521 9.7146C23.023 9.7146 22.308 9.42889 22.308 8.85746L21.7359 9.42889C22.308 9.42889 22.594 10.1432 22.594 10.5717L23.4521 9.7146Z" fill="white"/>
<path d="M9.43474 10.9562C9.43474 10.2704 8.87875 9.7144 8.1929 9.7144H5.24184C4.55599 9.7144 4 10.2704 4 10.9562V13.9011C4 14.587 4.55599 15.1429 5.24184 15.1429H8.1929C8.87875 15.1429 9.43474 14.587 9.43474 13.9011V10.9562Z" fill="white"/>
<path d="M15.1554 5.24184C15.1554 4.55599 14.5994 4 13.9135 4H10.9625C10.2766 4 9.72063 4.55599 9.72063 5.24184V8.1867C9.72063 8.87255 10.2766 9.42854 10.9625 9.42854H13.9135C14.5994 9.42854 15.1554 8.87255 15.1554 8.1867V5.24184Z" fill="white"/>
<path d="M8.57496 9.7146C9.00402 9.7146 9.71911 9.42889 9.71911 8.85746L10.2912 9.42889C9.71911 9.42889 9.43307 10.1432 9.43307 10.5717L8.57496 9.7146Z" fill="white"/>
<path d="M9.43474 21.0438C9.43474 21.7296 8.87875 22.2856 8.1929 22.2856H5.24184C4.55599 22.2856 4 21.7296 4 21.0438V18.0989C4 17.413 4.55599 16.8571 5.24184 16.8571H8.1929C8.87875 16.8571 9.43474 17.413 9.43474 18.0989V21.0438Z" fill="white"/>
<path d="M15.1554 26.7582C15.1554 27.444 14.5994 28 13.9135 28H10.9625C10.2766 28 9.72063 27.444 9.72063 26.7582V23.8133C9.72063 23.1274 10.2766 22.5715 10.9625 22.5715H13.9135C14.5994 22.5715 15.1554 23.1274 15.1554 23.8133V26.7582Z" fill="white"/>
<path d="M8.57496 22.2857C9.00402 22.2857 9.71911 22.5714 9.71911 23.1428L10.2912 22.5714C9.71911 22.5714 9.43307 21.8571 9.43307 21.4286L8.57496 22.2857Z" fill="white"/>
<path d="M22.3039 23.8132C22.3039 23.1274 21.7479 22.5714 21.0621 22.5714H18.111C17.4252 22.5714 16.8692 23.1274 16.8692 23.8132V26.7581C16.8692 27.4439 17.4252 27.9999 18.111 27.9999H21.0621C21.7479 27.9999 22.3039 27.4439 22.3039 26.7581V23.8132Z" fill="white"/>
<path d="M28.0246 18.0988C28.0246 17.413 27.4686 16.857 26.7827 16.857H23.8317C23.1458 16.857 22.5898 17.413 22.5898 18.0988V21.0437C22.5898 21.7295 23.1458 22.2855 23.8317 22.2855H26.7827C27.4686 22.2855 28.0246 21.7295 28.0246 21.0437V18.0988Z" fill="white"/>
<path d="M21.4441 22.5713C21.8732 22.5713 22.5883 22.2856 22.5883 21.7142L23.1604 22.2856C22.5883 22.2856 22.3023 22.9999 22.3023 23.4284L21.4441 22.5713Z" fill="white"/>
<path d="M40.6369 24.1108C44.0623 24.1108 45.8281 22.5582 45.8281 19.5804V19.534C45.8281 17.3094 44.698 15.9654 42.5203 15.6062V15.3744C44.3449 15.0153 45.2866 13.8102 45.2866 11.8869V11.8405C45.2866 9.24511 43.6503 7.88947 40.4838 7.88947H32.9501V9.72016C34.2215 9.72016 34.2921 9.7781 34.2921 10.7861V21.2141C34.2921 22.2221 34.2215 22.2801 32.9501 22.2801V24.1108H40.6369ZM37.2114 10.1489H39.9424C41.5904 10.1489 42.379 10.8325 42.379 12.304V12.3619C42.379 13.8798 41.5904 14.5981 39.9424 14.5981H37.2114V10.1489ZM37.2114 16.5331H40.0601C41.8729 16.5331 42.7439 17.3905 42.7439 19.1517V19.2096C42.7439 20.994 41.8729 21.8398 40.0601 21.8398H37.2114V16.5331Z" fill="white"/>
<path d="M52.4789 24.1108V22.2801C51.2194 22.2801 51.137 22.2221 51.137 21.2141V7.88947H48.5708C48.4531 8.89751 48.2647 9.04814 46.9346 9.04814V10.8788C48.1941 10.8788 48.2765 10.9368 48.2765 11.9448V21.2141C48.2765 22.2221 48.1941 22.2801 46.9346 22.2801V24.1108H52.4789Z" fill="white"/>
<path d="M59.012 24.4004C62.414 24.4004 64.3209 22.0368 64.3209 18.1552V17.9003C64.3209 13.9956 62.4257 11.6551 59.012 11.6551C55.5983 11.6551 53.7031 13.9956 53.7031 17.9003V18.1552C53.7031 22.0368 55.5983 24.4004 59.012 24.4004ZM59.012 22.4539C57.5995 22.4539 56.6577 21.2257 56.6577 18.5724V17.4832C56.6577 14.8646 57.4229 13.5901 59.012 13.5901C60.5894 13.5901 61.3663 14.8646 61.3663 17.4832V18.5724C61.3663 21.1909 60.5894 22.4539 59.012 22.4539Z" fill="white"/>
<path d="M71.3249 24.4004C74.3502 24.4004 76.1159 22.8131 76.4572 19.8237L73.6556 19.5225C73.4555 21.4922 72.6786 22.4423 71.3367 22.4423C69.7358 22.4423 68.9706 21.1562 68.9706 18.4449V17.4716C68.9706 14.8415 69.8182 13.5901 71.525 13.5901C72.6786 13.5901 73.3967 14.1694 73.3967 14.9226C73.3967 15.6525 72.7022 15.7916 72.7022 16.5795C72.7022 17.3558 73.3143 17.7265 74.2324 17.7265C75.5508 17.7265 76.2336 16.9502 76.2336 15.5251C76.2336 13.1614 74.3855 11.6551 71.4426 11.6551C67.9583 11.6551 66.016 13.8102 66.016 17.9351V17.9814C66.016 22.199 67.817 24.4004 71.3249 24.4004Z" fill="white"/>
<path d="M83.0021 24.1108V22.2801C81.8956 22.2801 81.8368 22.2221 81.8368 21.2489V19.6963L83.4259 18.2827L85.3682 21.4111C85.792 22.1874 85.6743 22.2801 84.45 22.2801V24.1108H89.2763V22.2801C88.417 22.2801 88.3581 22.2569 87.7813 21.2257L85.3211 16.5795L87.2752 14.714C88.1816 13.8914 88.4288 13.7755 89.2057 13.7755V11.9448H83.7555V13.7176C85.5212 13.7755 85.5448 14.0652 84.2028 15.3513L81.6602 17.7845L81.4601 17.6802C81.7308 16.5447 81.8368 15.6989 81.8368 14.2621V7.88947H79.2706C79.1529 8.89751 78.9646 9.04814 77.6344 9.04814V10.8788C78.8939 10.8788 78.9763 10.9368 78.9763 11.9448V21.2141C78.9763 22.2221 78.8939 22.2801 77.6344 22.2801V24.1108H83.0021Z" fill="white"/>
<path d="M96.4568 24.1224V22.2917C94.2321 22.2917 94.079 22.2337 94.079 21.2257V17.6802C94.079 15.8031 94.9383 14.4591 95.7741 14.4591C96.5628 14.4591 96.2685 15.9885 97.3986 15.9885C98.2226 15.9885 98.6816 15.1891 98.6816 13.9377C98.6816 12.6052 98.1402 11.8521 97.0807 11.8521C95.727 11.8521 94.5381 12.9644 93.5611 15.3049L93.3139 15.2122C93.7377 13.8218 93.9378 12.7906 93.9731 11.9448H91.5129C91.3951 12.9528 91.2068 13.1035 89.8766 13.1035V14.9341C91.1362 14.9341 91.2186 14.9921 91.2186 16.0001V21.2257C91.2186 22.2337 91.1362 22.2917 89.8766 22.2917V24.1224H96.4568Z" fill="white"/>
<path d="M102.178 10.4965C103.39 10.4965 104.085 9.96348 104.085 9.04814C104.085 8.14438 103.39 7.59981 102.178 7.59981C100.965 7.59981 100.271 8.14438 100.271 9.04814C100.271 9.96348 100.965 10.4965 102.178 10.4965ZM104.956 24.1108V22.2801C103.696 22.2801 103.614 22.2221 103.614 21.2141V11.9448H101.048C100.93 12.9528 100.742 13.1035 99.4115 13.1035V14.9341C100.671 14.9341 100.753 14.9921 100.753 16.0001V21.2141C100.753 22.2221 100.671 22.2801 99.4115 22.2801V24.1108H104.956Z" fill="white"/>
<path d="M110.382 24.3193C112.289 24.3193 113.514 23.1607 114.185 21.1098L114.432 21.2025C114.043 22.535 113.843 23.5083 113.831 24.1108H118.022V22.2801C116.763 22.2801 116.68 22.2221 116.68 21.2141V7.88947H114.114C114.008 8.89751 113.82 9.04814 112.478 9.04814V10.6123C113.761 10.6123 113.831 10.6587 113.855 11.1685L113.89 11.8984C113.926 12.7443 114.067 13.6712 114.432 14.853L114.185 14.9457C113.525 12.976 112.301 11.7362 110.335 11.7362C107.722 11.7362 106.18 13.984 106.18 17.7729V18.2827C106.18 22.0715 107.734 24.3193 110.382 24.3193ZM111.348 22.4191C109.817 22.4191 109.076 21.1446 109.076 18.4797V17.5875C109.076 14.911 109.817 13.6249 111.336 13.6249C112.949 13.6249 113.82 15.05 113.82 17.7034V18.3638C113.82 21.0055 112.949 22.4191 111.348 22.4191Z" fill="white"/>
<path d="M124.614 22.4539C122.943 22.4539 122.083 21.2141 122.083 18.6303V18.4797H129.57C129.64 18.0973 129.664 17.7149 129.664 17.2746C129.664 13.6828 127.887 11.6667 124.614 11.6667C121.13 11.6667 119.246 13.9145 119.246 18.0162V18.0625C119.246 22.141 121.106 24.3888 124.543 24.3888C127.392 24.3888 129.205 22.9058 129.617 20.3103L126.992 19.9975C126.756 21.6892 125.956 22.4539 124.614 22.4539ZM124.673 13.5901C126.085 13.5901 126.815 14.4707 126.815 16.1507V16.1623C126.815 16.6026 126.603 16.8112 126.097 16.8112H122.107C122.248 14.6677 123.096 13.5901 124.673 13.5901Z" fill="white"/>
</g>
</g>
<defs>
<clipPath id="clip0_6385_7858">
<rect width="32" height="32" fill="white"/>
</clipPath>
</defs>
</svg>
