<svg xmlns="http://www.w3.org/2000/svg" width="25" height="25" viewBox="0 0 25 25" fill="none">
<g clip-path="url(#clip0_6463_18135)">
<path d="M24.5 12.498C24.5 5.87063 19.1274 0.498047 12.5 0.498047C5.87258 0.498047 0.5 5.87063 0.5 12.498C0.5 19.1255 5.87258 24.498 12.5 24.498C19.1274 24.498 24.5 19.1255 24.5 12.498Z" fill="#7289DA"/>
<path d="M18.5184 8.38864C17.4175 7.50789 16.0963 7.06754 14.7018 6.99414L14.4817 7.21434C15.7294 7.50789 16.8303 8.09504 17.8578 8.90239C16.6101 8.24184 15.2156 7.80149 13.7477 7.65469C13.3074 7.58129 12.9403 7.58129 12.5 7.58129C12.0596 7.58129 11.6927 7.58129 11.2523 7.65469C9.7844 7.80149 8.3899 8.24184 7.1422 8.90239C8.1697 8.09504 9.27065 7.50789 10.5183 7.21434L10.2982 6.99414C8.90365 7.06754 7.58255 7.50789 6.48165 8.38864C5.23394 10.7373 4.57339 13.3795 4.5 16.095C5.6009 17.2694 7.1422 18.0033 8.7569 18.0033C8.7569 18.0033 9.27065 17.4162 9.6376 16.9024C8.6835 16.6822 7.80275 16.1684 7.2156 15.3611C7.72935 15.6547 8.2431 15.9483 8.7569 16.1684C9.41745 16.462 10.078 16.6088 10.7386 16.7556C11.3257 16.829 11.9128 16.9024 12.5 16.9024C13.0871 16.9024 13.6743 16.829 14.2614 16.7556C14.922 16.6088 15.5826 16.462 16.2431 16.1684C16.7569 15.9483 17.2707 15.6547 17.7844 15.3611C17.1973 16.1684 16.3165 16.6822 15.3624 16.9024C15.7294 17.4162 16.2431 18.0033 16.2431 18.0033C17.8578 18.0033 19.3991 17.2694 20.5 16.095C20.4266 13.3795 19.7661 10.7373 18.5184 8.38864ZM10.078 14.7739C9.34405 14.7739 8.6835 14.1134 8.6835 13.3061C8.6835 12.4987 9.34405 11.8382 10.078 11.8382C10.812 11.8382 11.4725 12.4987 11.4725 13.3061C11.4725 14.1134 10.812 14.7739 10.078 14.7739ZM14.922 14.7739C14.1881 14.7739 13.5275 14.1134 13.5275 13.3061C13.5275 12.4987 14.1881 11.8382 14.922 11.8382C15.6559 11.8382 16.3165 12.4987 16.3165 13.3061C16.3165 14.1134 15.6559 14.7739 14.922 14.7739Z" fill="white"/>
</g>
<defs>
<clipPath id="clip0_6463_18135">
<rect width="24" height="24" fill="white" transform="translate(0.5 0.498047)"/>
</clipPath>
</defs>
</svg>