<svg xmlns="http://www.w3.org/2000/svg" width="28" height="23" viewBox="0 0 28 23" fill="none">
<path d="M25.7502 4.89922L24.8002 3.94922L16.0002 12.7492C14.9002 13.8492 13.0502 13.8492 11.9502 12.7492L3.1502 3.99922L2.2002 4.94922L8.7502 11.4992L2.2002 18.0492L3.1502 18.9992L9.7002 12.4492L11.0002 13.7492C11.8002 14.5492 12.8502 14.9992 13.9502 14.9992C15.0502 14.9992 16.1002 14.5492 16.9002 13.7492L18.2002 12.4492L24.7502 18.9992L25.7002 18.0492L19.1502 11.4992L25.7502 4.89922Z" fill="#134563"/>
<path d="M23.8998 20.6984H4.1498C2.9998 20.6984 2.0498 19.7484 2.0498 18.5984V4.49844C2.0498 3.34844 2.9998 2.39844 4.1498 2.39844H23.8998C25.0498 2.39844 25.9998 3.34844 25.9998 4.49844V18.5984C25.9998 19.7484 25.0498 20.6984 23.8998 20.6984ZM4.0998 3.74844C3.6998 3.74844 3.3998 4.04844 3.3998 4.44844V18.5484C3.3998 18.9484 3.6998 19.2484 4.0998 19.2484H23.8498C24.2498 19.2484 24.5498 18.9484 24.5498 18.5484V4.44844C24.5498 4.04844 24.2498 3.74844 23.8498 3.74844H4.0998Z" fill="#134563"/>
</svg>