<svg width="29" height="29" viewBox="0 0 29 29" fill="none" xmlns="http://www.w3.org/2000/svg">
<rect x="0.25" y="0.5" width="28" height="28" rx="4" fill="#263F67" fill-opacity="0.1"/>
<path d="M18.333 22.8327H10.1663C8.74968 22.8327 7.58301 21.6743 7.58301 20.2493V8.74935C7.58301 7.33269 8.74135 6.16602 10.1663 6.16602H18.333C19.7497 6.16602 20.9163 7.32435 20.9163 8.74935V20.2493C20.9163 21.6743 19.758 22.8327 18.333 22.8327Z" stroke="#140D04" stroke-width="1.5" stroke-linecap="round" stroke-linejoin="round"/>
<path d="M19.6663 15.3327H8.83301C8.14134 15.3327 7.58301 14.7743 7.58301 14.0827V12.416C7.58301 11.7243 8.14134 11.166 8.83301 11.166H19.6663C20.358 11.166 20.9163 11.7243 20.9163 12.416V14.0827C20.9163 14.7743 20.358 15.3327 19.6663 15.3327Z" stroke="#140D04" stroke-width="1.5" stroke-linecap="round" stroke-linejoin="round"/>
<path d="M11.3291 19.2507H11.3366" stroke="#140D04" stroke-width="2.5" stroke-linecap="round" stroke-linejoin="round"/>
<path d="M17.1621 19.2507H17.1696" stroke="#140D04" stroke-width="2.5" stroke-linecap="round" stroke-linejoin="round"/>
<path d="M12.167 8.66602H16.3337" stroke="#140D04" stroke-width="1.5" stroke-linecap="round" stroke-linejoin="round"/>
</svg>
