<svg width="28" height="29" viewBox="0 0 28 29" fill="none" xmlns="http://www.w3.org/2000/svg">
<rect y="0.5" width="28" height="28" rx="4" fill="#263F67" fill-opacity="0.1"/>
<path d="M11.917 15.9575C11.917 16.7659 12.542 17.4159 13.3087 17.4159H14.8753C15.542 17.4159 16.0837 16.8492 16.0837 16.1409C16.0837 15.3825 15.7503 15.1076 15.2587 14.9326L12.7503 14.0575C12.2587 13.8825 11.9253 13.6159 11.9253 12.8492C11.9253 12.1492 12.467 11.5742 13.1337 11.5742H14.7003C15.467 11.5742 16.092 12.2242 16.092 13.0326" stroke="#140D04" stroke-width="1.5" stroke-linecap="round" stroke-linejoin="round"/>
<path d="M14 10.75V18.25" stroke="#140D04" stroke-width="1.5" stroke-linecap="round" stroke-linejoin="round"/>
<path d="M22.3337 14.4993C22.3337 19.0993 18.6003 22.8327 14.0003 22.8327C9.40033 22.8327 5.66699 19.0993 5.66699 14.4993C5.66699 9.89935 9.40033 6.16602 14.0003 6.16602" stroke="#140D04" stroke-width="1.5" stroke-linecap="round" stroke-linejoin="round"/>
<path d="M22.3333 9.49935V6.16602H19" stroke="#140D04" stroke-width="1.5" stroke-linecap="round" stroke-linejoin="round"/>
<path d="M18.167 10.3327L22.3337 6.16602" stroke="#140D04" stroke-width="1.5" stroke-linecap="round" stroke-linejoin="round"/>
</svg>
