<svg width="29" height="29" viewBox="0 0 29 29" fill="none" xmlns="http://www.w3.org/2000/svg">
<rect x="0.75" y="0.5" width="28" height="28" rx="4" fill="#263F67" fill-opacity="0.1"/>
<path d="M18.917 7H22.2503V10.3333" stroke="#292D32" stroke-width="1.5" stroke-linecap="round" stroke-linejoin="round"/>
<path d="M17.25 12L22.25 7" stroke="#292D32" stroke-width="1.5" stroke-linecap="round" stroke-linejoin="round"/>
<path d="M10.5833 21.9993H7.25V18.666" stroke="#292D32" stroke-width="1.5" stroke-linecap="round" stroke-linejoin="round"/>
<path d="M12.25 17L7.25 22" stroke="#292D32" stroke-width="1.5" stroke-linecap="round" stroke-linejoin="round"/>
<path d="M16.4337 6.33269C15.892 6.22436 15.3253 6.16602 14.7503 6.16602C10.1503 6.16602 6.41699 9.89935 6.41699 14.4993C6.41699 15.0743 6.47534 15.6327 6.58367 16.166" stroke="#292D32" stroke-width="1.5" stroke-linecap="round" stroke-linejoin="round"/>
<path d="M13.0664 22.6673C13.6081 22.7756 14.1748 22.834 14.7498 22.834C19.3498 22.834 23.0831 19.1007 23.0831 14.5007C23.0831 13.934 23.0247 13.3757 22.9164 12.834" stroke="#292D32" stroke-width="1.5" stroke-linecap="round" stroke-linejoin="round"/>
</svg>
