<svg width="17" height="18" viewBox="0 0 17 18" fill="none" xmlns="http://www.w3.org/2000/svg">
<path d="M16.2574 15.4605L12.582 11.7852C13.4669 10.6072 13.9446 9.17331 13.943 7.7C13.943 3.93672 10.8813 0.875 7.11797 0.875C3.35469 0.875 0.292969 3.93672 0.292969 7.7C0.292969 11.4633 3.35469 14.525 7.11797 14.525C8.59128 14.5266 10.0251 14.0489 11.2031 13.1641L14.8785 16.8395C15.0646 17.0058 15.3072 17.0945 15.5567 17.0876C15.8061 17.0806 16.0434 16.9784 16.2199 16.8019C16.3963 16.6255 16.4985 16.3881 16.5055 16.1387C16.5125 15.8893 16.4237 15.6466 16.2574 15.4605ZM2.24297 7.7C2.24297 6.73582 2.52888 5.79329 3.06455 4.9916C3.60023 4.18991 4.3616 3.56506 5.25239 3.19609C6.14318 2.82711 7.12338 2.73057 8.06904 2.91867C9.01469 3.10678 9.88333 3.57107 10.5651 4.25285C11.2469 4.93464 11.7112 5.80328 11.8993 6.74894C12.0874 7.69459 11.9909 8.67479 11.6219 9.56558C11.2529 10.4564 10.6281 11.2177 9.82638 11.7534C9.02468 12.2891 8.08215 12.575 7.11797 12.575C5.82551 12.5735 4.58644 12.0593 3.67254 11.1454C2.75863 10.2315 2.24452 8.99246 2.24297 7.7Z" fill="#353649"/>
</svg>
